<?xml version="1.0" standalone="no"?>
<!DOCTYPE svg PUBLIC "-//W3C//DTD SVG 20010904//EN"
 "http://www.w3.org/TR/2001/REC-SVG-20010904/DTD/svg10.dtd">
<svg version="1.0" xmlns="http://www.w3.org/2000/svg"
 width="1642.000000pt" height="1181.000000pt" viewBox="0 0 1642.000000 1181.000000"
 preserveAspectRatio="xMidYMid meet">

<g transform="translate(0.000000,1181.000000) scale(0.100000,-0.100000)"
fill="#000000" stroke="none">
<path d="M8050 10773 c-493 -35 -943 -186 -1334 -447 -159 -106 -254 -183
-395 -320 -429 -419 -700 -946 -792 -1547 -32 -205 -32 -571 -1 -774 92 -592
345 -1101 754 -1517 801 -813 2015 -1035 3059 -559 396 180 772 485 1039 842
664 888 717 2097 132 3043 -152 246 -427 551 -649 719 -292 221 -634 389 -968
476 -277 71 -591 102 -845 84z m500 -288 c459 -69 878 -257 1225 -548 922
-775 1144 -2098 523 -3127 -91 -152 -197 -289 -327 -423 l-114 -117 -132 69
c-73 38 -192 104 -264 147 -227 136 -209 128 -273 126 -69 -2 -120 16 -165 60
-36 34 -47 59 -62 136 -12 56 -51 138 -100 212 -17 25 -31 54 -31 64 0 11 24
56 54 100 83 125 132 235 171 388 21 79 29 88 75 88 23 0 43 7 54 19 17 19
107 316 125 416 17 89 13 150 -14 265 -37 152 -70 569 -47 592 23 23 12 90
-43 259 -31 94 -62 202 -70 240 -8 38 -22 83 -30 98 -22 43 -102 119 -175 167
-36 23 -83 58 -105 79 -76 70 -245 134 -448 171 -123 23 -395 23 -492 2 -119
-27 -243 -84 -224 -103 4 -3 84 -10 180 -15 451 -26 546 -40 682 -103 90 -42
130 -76 225 -197 42 -52 91 -109 108 -127 21 -21 34 -46 39 -73 6 -36 4 -45
-18 -68 -35 -38 -44 -59 -68 -154 -40 -160 -36 -182 36 -212 58 -24 113 -116
70 -116 -29 0 -111 37 -164 73 -60 41 -75 44 -150 21 -29 -8 -78 -19 -109 -24
-75 -13 -106 -44 -135 -135 -22 -71 -26 -160 -17 -351 4 -61 1 -76 -22 -115
-25 -42 -57 -72 -105 -98 -19 -10 -27 -8 -51 9 -16 12 -43 22 -60 22 -55 2
-105 -47 -70 -68 7 -5 38 -7 69 -6 54 2 56 1 80 -35 27 -43 103 -88 182 -109
68 -18 179 -18 223 1 l36 15 -22 29 c-11 17 -38 83 -59 148 -54 169 -54 167
-30 197 20 26 23 27 117 24 75 -2 110 1 153 16 49 17 59 17 84 5 65 -32 60
-64 -30 -185 -43 -58 -71 -106 -81 -143 -21 -71 -45 -118 -78 -154 -38 -41
-33 -66 25 -122 55 -54 90 -108 109 -169 15 -46 6 -56 -53 -56 -52 0 -85 19
-135 79 -51 60 -57 64 -222 127 -118 45 -130 48 -220 48 -85 0 -103 -3 -165
-31 l-69 -31 39 -11 c22 -5 101 -19 176 -30 74 -11 151 -26 170 -34 l34 -15
-40 -17 c-22 -10 -76 -24 -119 -31 -114 -20 -146 -30 -188 -59 -40 -27 -48
-54 -23 -75 11 -9 31 -10 83 -2 123 18 150 -1 177 -122 20 -91 45 -133 91
-152 37 -15 43 -15 132 13 51 17 53 17 74 -4 46 -46 61 -230 28 -357 -26 -104
-68 -179 -148 -266 l-66 -73 23 -18 c30 -24 47 -24 96 2 70 37 122 87 201 192
42 56 77 103 79 105 1 1 12 -40 24 -90 13 -51 33 -121 46 -155 l22 -63 -60
-92 c-99 -153 -109 -188 -87 -295 16 -74 57 -434 50 -438 -4 -2 -51 -13 -106
-24 -127 -25 -289 -41 -425 -41 l-107 0 -12 53 c-6 28 -18 99 -26 157 -8 58
-17 119 -19 136 -3 17 -17 42 -31 55 -23 22 -34 24 -122 24 -54 0 -105 5 -116
11 -28 17 -155 118 -155 124 -1 3 12 13 28 23 49 29 97 20 149 -26 l22 -20 0
22 c0 32 -26 78 -53 93 -39 21 -181 47 -195 36 -7 -6 -19 -34 -27 -63 -9 -29
-25 -61 -35 -70 -19 -17 -21 -17 -41 1 -33 29 -51 81 -48 137 l3 51 -49 11
c-151 35 -261 142 -239 232 l6 22 70 -35 c39 -19 72 -33 75 -30 5 5 -21 32
-75 78 -36 30 -42 58 -12 58 53 0 150 69 150 106 0 17 -53 51 -92 59 -27 6
-72 -17 -299 -157 -59 -36 -416 -198 -531 -242 l-67 -25 -54 67 c-82 102 -93
122 -76 133 27 17 50 9 97 -34 60 -56 92 -77 114 -77 27 0 22 29 -7 42 -20 9
-25 19 -25 46 0 25 -8 41 -31 63 -39 36 -74 37 -138 4 l-49 -24 -60 92 c-191
298 -313 632 -364 997 -19 142 -17 507 5 650 107 700 491 1306 1070 1691 317
210 685 346 1047 388 52 6 111 13 130 15 73 9 409 -4 510 -19z m-744 -4517
c-8 -43 -33 -68 -66 -68 -28 0 -64 -30 -45 -37 35 -12 61 -32 72 -53 17 -33
17 -140 1 -140 -44 0 -372 92 -391 110 -10 8 64 104 96 124 12 7 37 16 54 20
27 4 39 0 65 -23 41 -35 65 -27 97 30 27 47 56 69 94 69 28 0 29 -2 23 -32z
m192 -200 c52 -32 56 -82 8 -113 -23 -15 -36 -16 -113 -5 -48 6 -89 13 -91 15
-5 5 17 45 45 83 42 56 84 62 151 20z"/>
<path d="M7762 8894 c-31 -21 -28 -50 5 -59 30 -7 53 -23 53 -35 0 -5 -30 -17
-67 -29 -38 -11 -94 -37 -125 -56 -48 -30 -58 -41 -58 -65 0 -35 14 -40 77
-28 41 8 61 7 99 -6 71 -24 132 -20 231 16 116 42 143 68 143 140 0 29 -4 59
-9 67 -12 18 -214 70 -276 71 -30 0 -60 -6 -73 -16z"/>
<path d="M7350 7767 c0 -30 63 -217 84 -248 8 -13 66 -71 127 -129 l112 -105
-6 61 c-11 108 -39 229 -57 247 -12 13 -34 20 -66 21 -86 4 -131 22 -143 58
-6 17 -11 45 -11 62 0 30 -15 56 -32 56 -4 0 -8 -10 -8 -23z"/>
<path d="M7819 7740 c-31 -16 -69 -44 -84 -62 l-28 -33 26 -3 c50 -6 157 71
157 114 0 19 -6 18 -71 -16z"/>
<path d="M6926 6944 l-28 -16 26 -27 c36 -38 33 -57 -14 -81 -54 -28 -77 -25
-112 12 l-29 32 -67 -22 c-37 -12 -82 -31 -100 -42 l-33 -20 21 -29 c11 -16
35 -41 52 -56 27 -22 39 -26 71 -22 22 3 46 12 54 20 13 13 10 17 -24 38 -24
15 -53 24 -81 24 l-43 0 26 22 c42 37 67 38 130 4 39 -21 72 -31 102 -31 71 0
98 15 250 136 19 15 24 26 19 42 -9 28 -33 28 -62 1 l-21 -20 -38 25 c-43 30
-59 31 -99 10z"/>
<path d="M7395 6738 c38 -118 56 -193 57 -241 1 -58 1 -58 27 -52 54 14 62 36
36 98 -8 20 -15 44 -14 54 0 17 1 17 12 -1 31 -49 67 -82 132 -123 84 -54 130
-96 145 -134 13 -31 30 -30 30 2 0 44 70 7 101 -53 11 -22 29 -68 40 -103 22
-72 74 -139 90 -114 12 20 11 130 -3 208 -11 66 -11 66 -24 36 -7 -16 -14 -59
-15 -95 l-2 -65 -8 72 c-14 117 -39 150 -158 204 -100 45 -224 133 -326 230
-83 80 -131 111 -120 77z"/>
<path d="M4443 3993 c4 -731 10 -1676 14 -2100 l6 -773 400 0 400 0 -6 1063
c-4 584 -10 1529 -14 2100 l-6 1037 -400 0 -400 0 6 -1327z"/>
<path d="M3164 4498 c3 -277 7 -861 7 -1298 1 -778 1 -797 -21 -900 -74 -359
-283 -568 -621 -621 -92 -14 -292 -6 -374 15 -229 61 -411 235 -489 467 -62
184 -62 203 -75 2642 l-1 187 -173 0 c-96 0 -289 -3 -430 -7 l-256 -6 5 -1171
c6 -1501 10 -1569 90 -1816 166 -515 583 -834 1210 -926 165 -25 506 -25 664
-1 575 89 962 347 1183 792 69 140 103 251 133 430 14 87 16 202 15 890 0 435
-4 1023 -7 1308 l-7 517 -430 0 -430 0 7 -502z"/>
<path d="M9430 4090 c-241 -14 -487 -61 -768 -146 -64 -20 -118 -37 -119 -38
-4 -4 35 -527 40 -532 2 -2 42 16 88 40 241 127 557 195 849 183 426 -17 628
-207 630 -592 l0 -80 -308 0 c-321 -1 -429 -10 -657 -56 -448 -90 -773 -321
-890 -633 -72 -192 -73 -480 -2 -667 84 -223 288 -398 547 -472 155 -45 424
-62 566 -36 276 49 544 215 707 437 l46 63 5 -33 c3 -18 8 -117 12 -220 l6
-188 390 0 391 0 -7 48 c-16 126 -25 483 -31 1172 -6 815 -10 880 -62 1044
-59 187 -169 349 -312 458 -82 62 -261 150 -361 178 -116 32 -277 58 -391 65
-212 11 -247 12 -369 5z m717 -1762 c-6 -215 -30 -328 -96 -455 -54 -103 -106
-161 -197 -222 -115 -77 -187 -96 -364 -96 -126 0 -154 4 -210 23 -131 47
-208 118 -250 230 -29 77 -29 212 1 307 19 62 30 78 98 146 172 172 421 240
905 247 l119 2 -6 -182z"/>
<path d="M6710 4080 c-556 -77 -963 -419 -1145 -962 -58 -174 -78 -311 -78
-543 0 -498 129 -867 398 -1141 287 -292 697 -415 1282 -384 225 12 422 34
578 66 118 24 314 79 326 92 3 4 -2 115 -12 247 -10 132 -18 252 -18 268 l-1
27 -58 -29 c-290 -146 -818 -217 -1085 -145 -95 25 -255 105 -327 163 -166
132 -264 322 -286 547 l-6 71 143 6 c79 4 506 7 949 7 443 0 816 3 829 7 l24
6 -6 216 c-6 228 -22 359 -64 531 -123 511 -434 829 -911 930 -111 24 -420 35
-532 20z m329 -485 c90 -22 156 -60 231 -135 68 -67 131 -175 164 -275 19 -59
42 -200 51 -307 l7 -78 -350 0 c-192 0 -464 -3 -605 -7 l-257 -6 0 49 c0 70
26 218 51 294 114 347 403 537 708 465z"/>
<path d="M14570 4079 c-310 -55 -578 -240 -709 -489 l-37 -70 -52 102 c-107
216 -302 368 -547 430 -76 19 -117 23 -265 23 -193 0 -265 -11 -410 -64 -199
-73 -371 -222 -481 -416 l-34 -60 -6 135 c-4 74 -7 184 -8 244 l-1 109 -376
-6 c-207 -4 -378 -8 -379 -9 -1 -2 2 -37 6 -78 17 -156 28 -688 29 -1310 0
-355 3 -837 7 -1072 l6 -428 400 0 400 0 -7 823 c-8 863 -5 959 35 1116 55
215 186 372 352 423 99 30 268 23 347 -14 83 -39 134 -89 175 -171 73 -149 66
17 84 -2054 l1 -123 396 0 395 0 -1 873 c-2 902 0 947 40 1095 40 145 129 279
235 352 78 54 155 72 285 68 106 -3 121 -6 181 -35 80 -40 140 -102 180 -187
61 -130 61 -122 69 -1146 4 -514 8 -954 9 -977 l1 -43 400 0 400 0 -5 962 c-4
530 -11 1019 -16 1088 -35 428 -179 679 -478 830 -111 56 -234 81 -411 85 -85
2 -180 0 -210 -6z"/>
</g>
</svg>
