<?xml version="1.0" encoding="UTF-8"?>
<svg xmlns="http://www.w3.org/2000/svg" xmlns:xlink="http://www.w3.org/1999/xlink" width="40px" height="39px" viewBox="0 0 39 39" version="1.1">
<g id="surface1">
<path style=" stroke:none;fill-rule:nonzero;fill:rgb(0%,0%,0%);fill-opacity:1;" d="M 18.410156 0.84375 C 15.222656 1.074219 12.179688 2.136719 9.503906 3.9375 C 8.324219 4.734375 7.621094 5.320312 6.609375 6.347656 C 5.558594 7.417969 5.054688 8.039062 4.222656 9.308594 C 2.664062 11.671875 1.660156 14.402344 1.265625 17.320312 C 1.121094 18.382812 1.101562 20.804688 1.234375 21.824219 C 1.609375 24.890625 2.625 27.691406 4.226562 30.128906 C 7.25 34.726562 11.945312 37.699219 17.351562 38.460938 C 18.535156 38.621094 20.988281 38.621094 22.164062 38.460938 C 26.902344 37.792969 31.121094 35.417969 34.132812 31.722656 C 36.410156 28.929688 37.84375 25.519531 38.289062 21.824219 C 38.402344 20.925781 38.402344 18.464844 38.289062 17.566406 C 37.855469 13.996094 36.488281 10.664062 34.304688 7.890625 C 33.691406 7.109375 32.265625 5.648438 31.535156 5.050781 C 28.480469 2.550781 24.910156 1.132812 20.964844 0.839844 C 19.898438 0.761719 19.527344 0.761719 18.410156 0.84375 Z M 22.171875 2.828125 C 25.667969 3.367188 28.890625 4.980469 31.390625 7.4375 C 33.421875 9.429688 34.765625 11.558594 35.660156 14.199219 C 36.210938 15.832031 36.480469 17.320312 36.542969 19.136719 C 36.699219 23.835938 35.035156 28.1875 31.761719 31.632812 L 31.152344 32.28125 L 30.324219 31.863281 C 29.46875 31.429688 28.148438 30.667969 27.40625 30.179688 C 27.003906 29.914062 26.929688 29.890625 26.507812 29.890625 C 26.128906 29.890625 25.972656 29.859375 25.675781 29.695312 C 25.242188 29.464844 25.097656 29.242188 24.917969 28.53125 C 24.78125 27.964844 24.617188 27.59375 24.265625 27.078125 C 24.132812 26.890625 24.03125 26.664062 24.03125 26.582031 C 24.03125 26.503906 24.203125 26.171875 24.417969 25.839844 C 24.621094 25.511719 24.898438 25.03125 25.027344 24.757812 C 25.261719 24.25 25.613281 23.195312 25.613281 22.992188 C 25.613281 22.742188 25.8125 22.558594 26.089844 22.558594 C 26.253906 22.558594 26.390625 22.511719 26.460938 22.433594 C 26.523438 22.363281 26.6875 21.917969 26.828125 21.441406 C 27.464844 19.21875 27.507812 18.835938 27.246094 17.738281 C 27.039062 16.875 27.011719 16.65625 26.894531 14.910156 C 26.8125 13.738281 26.820312 13.578125 26.910156 13.507812 C 27.066406 13.390625 26.976562 12.878906 26.585938 11.65625 C 26.390625 11.0625 26.191406 10.351562 26.128906 10.0625 C 26.074219 9.777344 25.964844 9.441406 25.882812 9.316406 C 25.695312 9.003906 24.988281 8.351562 24.59375 8.128906 C 24.417969 8.023438 24.148438 7.824219 23.996094 7.683594 C 23.480469 7.195312 22.734375 6.867188 21.558594 6.59375 C 19.707031 6.167969 17.605469 6.242188 16.511719 6.773438 C 16.160156 6.949219 15.933594 7.109375 15.988281 7.160156 C 16.003906 7.179688 16.609375 7.230469 17.324219 7.261719 C 20.347656 7.429688 20.996094 7.535156 22 8.023438 C 22.570312 8.304688 22.921875 8.617188 23.488281 9.359375 C 23.644531 9.570312 23.90625 9.882812 24.070312 10.058594 C 24.566406 10.582031 24.628906 10.945312 24.304688 11.316406 C 24.1875 11.445312 24.070312 11.664062 24.039062 11.796875 C 24.003906 11.9375 23.921875 12.25 23.851562 12.5 C 23.617188 13.429688 23.636719 13.523438 24.167969 13.792969 C 24.417969 13.917969 24.546875 14.046875 24.652344 14.246094 C 24.824219 14.597656 24.824219 14.597656 24.601562 14.597656 C 24.367188 14.597656 23.742188 14.304688 23.464844 14.074219 C 23.171875 13.816406 22.996094 13.800781 22.417969 13.960938 C 22.128906 14.046875 21.808594 14.109375 21.703125 14.109375 C 21.40625 14.109375 21.078125 14.359375 20.933594 14.695312 C 20.671875 15.289062 20.566406 15.910156 20.621094 16.585938 C 20.726562 17.816406 20.703125 18.054688 20.476562 18.382812 C 20.367188 18.542969 20.125 18.765625 19.953125 18.878906 L 19.628906 19.082031 L 19.429688 18.933594 C 19.140625 18.730469 18.796875 18.738281 18.589844 18.96875 C 18.371094 19.199219 18.480469 19.277344 19.039062 19.277344 C 19.445312 19.277344 19.453125 19.285156 19.589844 19.535156 C 19.84375 19.996094 20.789062 20.394531 21.660156 20.394531 C 22.046875 20.394531 22.515625 20.289062 22.515625 20.207031 C 22.515625 20.183594 22.425781 19.976562 22.316406 19.738281 C 22.207031 19.507812 22.019531 18.976562 21.902344 18.5625 C 21.730469 17.941406 21.703125 17.78125 21.773438 17.640625 C 21.875 17.398438 22.117188 17.335938 22.640625 17.40625 C 23.011719 17.460938 23.164062 17.445312 23.597656 17.3125 C 24.058594 17.175781 24.132812 17.167969 24.292969 17.257812 C 24.671875 17.472656 24.664062 17.71875 24.273438 18.269531 C 23.75 19.003906 23.617188 19.242188 23.445312 19.765625 C 23.335938 20.09375 23.175781 20.414062 23.03125 20.589844 C 22.902344 20.742188 22.792969 20.902344 22.792969 20.953125 C 22.792969 20.996094 22.96875 21.238281 23.199219 21.492188 C 23.644531 21.992188 23.878906 22.414062 23.90625 22.769531 C 23.925781 22.984375 23.90625 23.007812 23.691406 23.054688 C 23.320312 23.132812 23.074219 23.011719 22.589844 22.503906 C 22.15625 22.050781 22.101562 22.019531 21.277344 21.707031 C 19.679688 21.105469 19.375 21.09375 18.371094 21.539062 L 18.003906 21.707031 L 18.28125 21.785156 C 18.433594 21.820312 18.902344 21.902344 19.3125 21.964844 C 20.203125 22.085938 20.710938 22.203125 20.761719 22.285156 C 20.828125 22.390625 20.421875 22.546875 19.789062 22.664062 C 18.933594 22.824219 18.578125 22.949219 18.355469 23.179688 C 18.164062 23.382812 18.171875 23.558594 18.363281 23.632812 C 18.417969 23.65625 18.671875 23.640625 18.929688 23.601562 C 19.6875 23.480469 19.941406 23.683594 20.105469 24.535156 C 20.148438 24.773438 20.230469 25.050781 20.285156 25.15625 C 20.5 25.578125 20.972656 25.6875 21.539062 25.457031 C 22.0625 25.242188 22.234375 25.386719 22.378906 26.183594 C 22.621094 27.503906 22.269531 28.71875 21.339844 29.800781 C 21 30.1875 20.890625 30.359375 20.9375 30.421875 C 21.296875 30.855469 22.269531 30.207031 23.171875 28.921875 C 23.390625 28.613281 23.582031 28.371094 23.597656 28.382812 C 23.609375 28.398438 23.679688 28.65625 23.753906 28.957031 C 23.824219 29.265625 23.960938 29.730469 24.058594 30.011719 L 24.230469 30.515625 L 23.839844 31.128906 C 23.074219 32.351562 23.066406 32.378906 23.230469 33.34375 C 23.285156 33.65625 23.382812 34.363281 23.445312 34.921875 C 23.507812 35.480469 23.570312 36.019531 23.589844 36.117188 C 23.625 36.289062 23.605469 36.296875 23.082031 36.414062 C 22.226562 36.605469 20.980469 36.730469 20.023438 36.738281 C 19.167969 36.738281 19.140625 36.730469 19.113281 36.578125 C 18.964844 35.871094 18.867188 35.285156 18.824219 34.832031 C 18.777344 34.238281 18.617188 33.910156 18.34375 33.804688 C 18.246094 33.761719 17.964844 33.753906 17.710938 33.777344 C 17.367188 33.8125 17.179688 33.789062 16.988281 33.714844 C 16.730469 33.601562 15.851562 32.910156 15.84375 32.8125 C 15.828125 32.714844 16.242188 32.546875 16.484375 32.546875 C 16.65625 32.546875 16.792969 32.609375 16.972656 32.761719 C 17.214844 32.980469 17.214844 32.980469 17.214844 32.820312 C 17.214844 32.726562 17.152344 32.554688 17.078125 32.429688 C 16.933594 32.183594 16.527344 32.023438 15.859375 31.9375 C 15.457031 31.898438 15.4375 31.910156 15.285156 32.527344 C 15.085938 33.320312 14.460938 32.839844 14.460938 31.898438 L 14.460938 31.519531 L 14.175781 31.476562 C 13.757812 31.421875 13.046875 31.046875 12.808594 30.746094 C 12.574219 30.457031 12.433594 30.03125 12.496094 29.824219 C 12.539062 29.691406 12.566406 29.695312 13.027344 29.933594 C 13.289062 30.066406 13.523438 30.164062 13.542969 30.152344 C 13.578125 30.109375 13.082031 29.613281 13.007812 29.613281 C 12.972656 29.613281 12.902344 29.523438 12.839844 29.402344 C 12.738281 29.199219 12.738281 29.195312 12.890625 29.195312 C 13.082031 29.195312 13.710938 28.90625 13.820312 28.761719 C 13.992188 28.550781 13.957031 28.34375 13.714844 28.195312 C 13.324219 27.964844 13.117188 28.007812 12.289062 28.53125 C 11.292969 29.160156 10.832031 29.410156 9.675781 29.949219 C 8.882812 30.3125 7.25 31.011719 7.1875 31.011719 C 7.148438 31.011719 6.347656 29.984375 6.273438 29.828125 C 6.195312 29.695312 6.195312 29.65625 6.273438 29.605469 C 6.492188 29.464844 6.71875 29.570312 7.160156 30.003906 C 7.503906 30.332031 7.847656 30.480469 7.847656 30.285156 C 7.847656 30.222656 7.773438 30.128906 7.675781 30.089844 C 7.539062 30.023438 7.503906 29.957031 7.503906 29.773438 C 7.503906 29.59375 7.449219 29.488281 7.285156 29.328125 C 7.015625 29.082031 6.878906 29.074219 6.382812 29.300781 L 5.996094 29.464844 L 5.695312 29 C 3.992188 26.386719 3.085938 23.46875 2.980469 20.28125 C 2.933594 18.792969 3.03125 17.648438 3.304688 16.273438 C 4.34375 11.152344 7.636719 6.824219 12.257812 4.46875 C 14.148438 3.507812 16.035156 2.953125 18.179688 2.722656 C 19.003906 2.640625 21.316406 2.695312 22.171875 2.828125 Z M 17.007812 34.285156 C 17.007812 34.570312 16.765625 34.851562 16.527344 34.851562 C 16.394531 34.851562 16.296875 34.898438 16.25 34.984375 C 16.195312 35.101562 16.214844 35.128906 16.414062 35.199219 C 16.546875 35.242188 16.675781 35.347656 16.726562 35.453125 C 16.816406 35.660156 16.828125 36.457031 16.738281 36.457031 C 16.375 36.457031 13.976562 35.78125 13.976562 35.675781 C 13.976562 35.570312 14.488281 34.941406 14.667969 34.832031 C 14.761719 34.773438 14.957031 34.703125 15.09375 34.675781 C 15.3125 34.636719 15.367188 34.65625 15.511719 34.808594 C 15.601562 34.90625 15.734375 34.992188 15.796875 34.992188 C 15.859375 34.992188 16.023438 34.832031 16.160156 34.636719 C 16.527344 34.117188 17.007812 33.914062 17.007812 34.285156 Z M 18.355469 35.792969 C 18.644531 36.019531 18.667969 36.289062 18.417969 36.527344 C 18.246094 36.6875 18.238281 36.6875 17.613281 36.605469 C 17.261719 36.5625 16.964844 36.507812 16.953125 36.5 C 16.898438 36.4375 17.226562 35.898438 17.433594 35.722656 C 17.703125 35.492188 18 35.515625 18.355469 35.792969 Z M 18.355469 35.792969 "/>
<path style=" stroke:none;fill-rule:nonzero;fill:rgb(0%,0%,0%);fill-opacity:1;" d="M 16.671875 13.960938 C 16.464844 14.171875 16.484375 14.242188 16.792969 14.367188 C 17.1875 14.519531 17.199219 14.644531 16.847656 14.738281 C 16.03125 14.945312 15.328125 15.386719 15.367188 15.664062 C 15.390625 15.804688 15.421875 15.820312 15.871094 15.804688 C 16.1875 15.792969 16.457031 15.828125 16.648438 15.902344 C 17.046875 16.058594 17.585938 15.992188 18.289062 15.722656 C 18.992188 15.449219 19.09375 15.335938 19.128906 14.8125 C 19.15625 14.445312 19.140625 14.394531 18.996094 14.296875 C 18.75 14.136719 17.820312 13.898438 17.289062 13.851562 C 16.871094 13.816406 16.800781 13.828125 16.671875 13.960938 Z M 16.671875 13.960938 "/>
<path style=" stroke:none;fill-rule:nonzero;fill:rgb(0%,0%,0%);fill-opacity:1;" d="M 13.839844 21.789062 C 13.839844 21.929688 14.226562 23.117188 14.390625 23.472656 C 14.464844 23.632812 15.914062 25.074219 16.003906 25.074219 C 16.078125 25.074219 16.042969 24.773438 15.898438 23.992188 C 15.726562 23.070312 15.644531 22.910156 15.328125 22.910156 C 15.203125 22.910156 14.929688 22.875 14.707031 22.832031 C 14.261719 22.734375 14.117188 22.558594 14.117188 22.085938 C 14.117188 21.832031 14.019531 21.652344 13.894531 21.652344 C 13.867188 21.652344 13.839844 21.714844 13.839844 21.789062 Z M 13.839844 21.789062 "/>
<path style=" stroke:none;fill-rule:nonzero;fill:rgb(0%,0%,0%);fill-opacity:1;" d="M 17.046875 22.019531 C 16.820312 22.148438 16.566406 22.347656 16.46875 22.476562 L 16.296875 22.699219 L 16.464844 22.699219 C 16.863281 22.691406 17.558594 22.183594 17.558594 21.886719 C 17.558594 21.75 17.511719 21.761719 17.046875 22.019531 Z M 17.046875 22.019531 "/>
<path style=" stroke:none;fill-rule:nonzero;fill:rgb(0%,0%,0%);fill-opacity:1;" d="M 10.921875 27.558594 L 10.726562 27.671875 L 10.90625 27.859375 C 11.148438 28.113281 11.132812 28.246094 10.851562 28.417969 C 10.507812 28.636719 10.238281 28.613281 10.027344 28.335938 L 9.851562 28.113281 L 9.386719 28.277344 C 9.128906 28.371094 8.8125 28.503906 8.691406 28.578125 L 8.46875 28.71875 L 8.683594 28.992188 C 8.902344 29.269531 9.199219 29.472656 9.398438 29.472656 C 9.460938 29.472656 9.605469 29.425781 9.722656 29.363281 L 9.929688 29.25 L 9.667969 29.070312 C 9.480469 28.941406 9.308594 28.878906 9.109375 28.878906 L 8.820312 28.878906 L 8.964844 28.726562 C 9.207031 28.46875 9.453125 28.460938 9.929688 28.699219 C 10.546875 29.019531 10.996094 28.96875 11.574219 28.523438 C 11.738281 28.390625 11.996094 28.210938 12.140625 28.113281 C 12.449219 27.894531 12.519531 27.753906 12.375 27.609375 C 12.277344 27.511719 12.25 27.511719 12.078125 27.652344 C 11.890625 27.796875 11.707031 27.847656 11.707031 27.742188 C 11.707031 27.671875 11.328125 27.449219 11.210938 27.449219 C 11.160156 27.453125 11.03125 27.503906 10.921875 27.558594 Z M 10.921875 27.558594 "/>
<path style=" stroke:none;fill-rule:nonzero;fill:rgb(0%,0%,0%);fill-opacity:1;" d="M 14.183594 28.992188 C 14.183594 29.035156 14.265625 29.339844 14.363281 29.675781 C 14.464844 30.003906 14.550781 30.457031 14.554688 30.675781 C 14.5625 31.066406 14.570312 31.074219 14.734375 31.03125 C 15.074219 30.953125 15.128906 30.84375 14.988281 30.457031 C 14.929688 30.269531 14.871094 30.046875 14.871094 29.957031 C 14.878906 29.792969 14.886719 29.800781 14.988281 29.996094 C 15.160156 30.332031 15.285156 30.445312 15.988281 30.917969 C 16.46875 31.242188 16.710938 31.449219 16.835938 31.660156 C 16.992188 31.933594 17.015625 31.9375 17.046875 31.792969 C 17.109375 31.570312 17.324219 31.597656 17.585938 31.863281 C 17.738281 32.023438 17.875 32.28125 18.003906 32.671875 C 18.207031 33.300781 18.5625 33.816406 18.667969 33.648438 C 18.757812 33.511719 18.734375 32.636719 18.632812 32.164062 L 18.542969 31.742188 L 18.46875 32.023438 C 18.417969 32.175781 18.382812 32.476562 18.378906 32.6875 C 18.371094 33.0625 18.363281 33.054688 18.289062 32.496094 C 18.238281 32.132812 18.15625 31.847656 18.066406 31.730469 C 17.992188 31.617188 17.605469 31.359375 17.207031 31.148438 C 16.207031 30.613281 15.699219 30.242188 14.96875 29.53125 C 14.378906 28.949219 14.183594 28.816406 14.183594 28.992188 Z M 14.183594 28.992188 "/>
</g>
</svg>
