<?xml version="1.0" encoding="UTF-8"?>
<svg xmlns="http://www.w3.org/2000/svg" xmlns:xlink="http://www.w3.org/1999/xlink" width="345px" height="235px" viewBox="0 0 345 235" version="1.1">
<g id="surface1">
<path style=" stroke:none;fill-rule:nonzero;fill:rgb(0%,0%,0%);fill-opacity:1;" d="M 169.097656 20.636719 C 158.742188 21.335938 149.289062 24.339844 141.074219 29.535156 C 137.734375 31.644531 135.738281 33.175781 132.777344 35.902344 C 123.765625 44.242188 118.074219 54.730469 116.140625 66.691406 C 115.46875 70.769531 115.46875 78.054688 116.121094 82.09375 C 118.054688 93.875 123.367188 104.007812 131.957031 112.285156 C 148.785156 128.464844 174.285156 132.882812 196.214844 123.410156 C 204.535156 119.828125 212.433594 113.757812 218.039062 106.652344 C 231.988281 88.980469 233.101562 64.917969 220.8125 46.09375 C 217.621094 41.195312 211.84375 35.125 207.179688 31.78125 C 201.046875 27.386719 193.863281 24.042969 186.847656 22.308594 C 181.027344 20.898438 174.433594 20.28125 169.097656 20.636719 Z M 179.601562 26.371094 C 189.242188 27.742188 198.042969 31.484375 205.332031 37.277344 C 224.699219 52.699219 229.363281 79.03125 216.316406 99.507812 C 214.40625 102.535156 212.179688 105.261719 209.449219 107.925781 L 207.054688 110.253906 L 204.28125 108.882812 C 202.75 108.125 200.25 106.8125 198.734375 105.957031 C 193.96875 103.25 194.347656 103.410156 193 103.449219 C 191.550781 103.488281 190.480469 103.132812 189.535156 102.253906 C 188.78125 101.578125 188.546875 101.082031 188.234375 99.546875 C 187.980469 98.433594 187.160156 96.800781 186.132812 95.328125 C 185.777344 94.832031 185.480469 94.253906 185.480469 94.054688 C 185.480469 93.835938 185.984375 92.941406 186.617188 92.066406 C 188.359375 89.578125 189.390625 87.386719 190.207031 84.34375 C 190.648438 82.769531 190.816406 82.59375 191.785156 82.59375 C 192.265625 82.59375 192.6875 82.453125 192.917969 82.214844 C 193.273438 81.835938 195.164062 75.925781 195.542969 73.933594 C 195.902344 72.164062 195.816406 70.949219 195.25 68.660156 C 194.472656 65.636719 193.777344 57.335938 194.261719 56.878906 C 194.746094 56.421875 194.515625 55.089844 193.359375 51.726562 C 192.707031 49.855469 192.054688 47.703125 191.886719 46.949219 C 191.71875 46.191406 191.425781 45.296875 191.257812 44.996094 C 190.796875 44.140625 189.117188 42.628906 187.582031 41.675781 C 186.824219 41.214844 185.839844 40.519531 185.375 40.101562 C 183.78125 38.707031 180.230469 37.433594 175.964844 36.699219 C 173.382812 36.242188 167.667969 36.242188 165.632812 36.660156 C 163.132812 37.195312 160.527344 38.332031 160.925781 38.707031 C 161.011719 38.769531 162.691406 38.90625 164.707031 39.007812 C 174.179688 39.523438 176.175781 39.804688 179.03125 41.058594 C 180.921875 41.894531 181.761719 42.570312 183.757812 44.976562 C 184.640625 46.011719 185.671875 47.148438 186.027344 47.503906 C 186.46875 47.921875 186.742188 48.421875 186.847656 48.957031 C 186.972656 49.675781 186.929688 49.855469 186.46875 50.3125 C 185.734375 51.066406 185.542969 51.484375 185.039062 53.375 C 184.199219 56.5625 184.285156 57 185.796875 57.59375 C 187.015625 58.074219 188.171875 59.90625 187.265625 59.90625 C 186.65625 59.90625 184.933594 59.167969 183.820312 58.453125 C 182.5625 57.636719 182.246094 57.574219 180.671875 58.035156 C 180.0625 58.191406 179.03125 58.410156 178.382812 58.511719 C 176.804688 58.769531 176.15625 59.386719 175.546875 61.199219 C 175.082031 62.609375 175 64.382812 175.1875 68.183594 C 175.273438 69.398438 175.210938 69.695312 174.726562 70.472656 C 174.203125 71.308594 173.527344 71.90625 172.519531 72.421875 C 172.121094 72.621094 171.953125 72.582031 171.449219 72.242188 C 171.113281 72.003906 170.546875 71.804688 170.1875 71.804688 C 169.035156 71.765625 167.984375 72.742188 168.71875 73.160156 C 168.867188 73.257812 169.515625 73.296875 170.167969 73.277344 C 171.300781 73.238281 171.34375 73.257812 171.847656 73.976562 C 172.414062 74.832031 174.011719 75.726562 175.671875 76.144531 C 177.101562 76.503906 179.433594 76.503906 180.355469 76.125 L 181.113281 75.824219 L 180.648438 75.25 C 180.417969 74.910156 179.851562 73.597656 179.410156 72.304688 C 178.277344 68.941406 178.277344 68.980469 178.78125 68.382812 C 179.199219 67.863281 179.265625 67.84375 181.238281 67.90625 C 182.8125 67.945312 183.550781 67.886719 184.453125 67.585938 C 185.480469 67.25 185.691406 67.25 186.21875 67.488281 C 187.582031 68.125 187.476562 68.761719 185.585938 71.167969 C 184.683594 72.324219 184.09375 73.277344 183.886719 74.015625 C 183.445312 75.425781 182.941406 76.363281 182.246094 77.078125 C 181.449219 77.894531 181.554688 78.394531 182.773438 79.507812 C 183.925781 80.582031 184.664062 81.65625 185.0625 82.871094 C 185.375 83.785156 185.1875 83.984375 183.949219 83.984375 C 182.855469 83.984375 182.164062 83.605469 181.113281 82.414062 C 180.042969 81.21875 179.914062 81.140625 176.449219 79.886719 C 173.96875 78.988281 173.71875 78.929688 171.828125 78.929688 C 170.042969 78.929688 169.664062 78.988281 168.363281 79.546875 L 166.914062 80.164062 L 167.730469 80.382812 C 168.195312 80.484375 169.851562 80.761719 171.429688 80.980469 C 172.984375 81.199219 174.601562 81.496094 175 81.65625 L 175.714844 81.957031 L 174.875 82.292969 C 174.410156 82.492188 173.277344 82.769531 172.375 82.910156 C 169.980469 83.308594 169.308594 83.507812 168.425781 84.085938 C 167.585938 84.621094 167.417969 85.160156 167.941406 85.578125 C 168.171875 85.757812 168.59375 85.777344 169.683594 85.617188 C 172.269531 85.257812 172.835938 85.636719 173.402344 88.046875 C 173.824219 89.855469 174.347656 90.691406 175.316406 91.070312 C 176.09375 91.367188 176.21875 91.367188 178.085938 90.8125 C 179.160156 90.472656 179.199219 90.472656 179.640625 90.890625 C 180.609375 91.808594 180.921875 95.46875 180.230469 97.996094 C 179.683594 100.066406 178.800781 101.558594 177.121094 103.289062 L 175.734375 104.742188 L 176.21875 105.101562 C 176.847656 105.578125 177.207031 105.578125 178.234375 105.0625 C 179.703125 104.324219 180.796875 103.328125 182.457031 101.242188 C 183.339844 100.125 184.074219 99.191406 184.117188 99.152344 C 184.136719 99.128906 184.367188 99.945312 184.621094 100.941406 C 184.894531 101.957031 185.3125 103.351562 185.585938 104.027344 L 186.046875 105.28125 L 184.789062 107.109375 C 182.707031 110.15625 182.5 110.851562 182.960938 112.980469 C 183.296875 114.453125 184.160156 121.621094 184.011719 121.699219 C 183.925781 121.738281 182.941406 121.957031 181.785156 122.175781 C 179.117188 122.675781 175.714844 122.992188 172.855469 122.992188 L 170.609375 122.992188 L 170.355469 121.9375 C 170.230469 121.378906 169.980469 119.96875 169.8125 118.8125 C 169.644531 117.660156 169.453125 116.445312 169.414062 116.105469 C 169.347656 115.769531 169.054688 115.269531 168.761719 115.011719 C 168.277344 114.574219 168.046875 114.535156 166.199219 114.535156 C 165.0625 114.535156 163.992188 114.433594 163.761719 114.316406 C 163.171875 113.976562 160.503906 111.96875 160.503906 111.847656 C 160.484375 111.789062 160.757812 111.589844 161.09375 111.390625 C 162.125 110.8125 163.132812 110.992188 164.222656 111.90625 L 164.6875 112.304688 L 164.6875 111.867188 C 164.6875 111.230469 164.140625 110.316406 163.574219 110.015625 C 162.753906 109.597656 159.769531 109.082031 159.476562 109.300781 C 159.328125 109.417969 159.078125 109.976562 158.910156 110.554688 C 158.71875 111.132812 158.382812 111.769531 158.175781 111.949219 C 157.773438 112.285156 157.734375 112.285156 157.3125 111.925781 C 156.621094 111.351562 156.242188 110.316406 156.304688 109.199219 L 156.367188 108.1875 L 155.339844 107.96875 C 152.167969 107.269531 149.855469 105.140625 150.316406 103.351562 L 150.445312 102.910156 L 151.914062 103.609375 C 152.734375 103.988281 153.425781 104.265625 153.488281 104.207031 C 153.59375 104.105469 153.046875 103.570312 151.914062 102.652344 C 151.15625 102.054688 151.03125 101.5 151.664062 101.5 C 152.777344 101.5 154.8125 100.125 154.8125 99.390625 C 154.8125 99.050781 153.699219 98.375 152.878906 98.214844 C 152.3125 98.097656 151.367188 98.554688 146.601562 101.339844 C 145.359375 102.054688 137.863281 105.28125 135.445312 106.15625 L 134.039062 106.652344 L 132.902344 105.320312 C 131.179688 103.289062 130.949219 102.890625 131.308594 102.671875 C 131.875 102.335938 132.359375 102.492188 133.34375 103.351562 C 134.605469 104.464844 135.277344 104.882812 135.738281 104.882812 C 136.308594 104.882812 136.203125 104.304688 135.59375 104.046875 C 135.171875 103.867188 135.066406 103.667969 135.066406 103.132812 C 135.066406 102.632812 134.898438 102.316406 134.417969 101.878906 C 133.597656 101.160156 132.863281 101.140625 131.519531 101.796875 L 130.488281 102.273438 L 129.226562 100.445312 C 125.214844 94.511719 122.652344 87.867188 121.582031 80.601562 C 121.183594 77.777344 121.226562 70.511719 121.6875 67.664062 C 123.933594 53.734375 132 41.675781 144.164062 34.011719 C 150.820312 29.832031 158.550781 27.125 166.15625 26.289062 C 167.25 26.171875 168.488281 26.03125 168.886719 25.992188 C 170.421875 25.8125 177.476562 26.070312 179.601562 26.371094 Z M 163.972656 116.265625 C 163.804688 117.121094 163.277344 117.621094 162.585938 117.621094 C 161.996094 117.621094 161.242188 118.214844 161.640625 118.355469 C 162.375 118.59375 162.921875 118.992188 163.152344 119.410156 C 163.507812 120.066406 163.507812 122.195312 163.171875 122.195312 C 162.25 122.195312 155.359375 120.367188 154.960938 120.007812 C 154.75 119.847656 156.304688 117.9375 156.976562 117.539062 C 157.230469 117.402344 157.753906 117.222656 158.109375 117.140625 C 158.679688 117.0625 158.929688 117.140625 159.476562 117.597656 C 160.335938 118.296875 160.839844 118.136719 161.515625 117.003906 C 162.082031 116.066406 162.691406 115.628906 163.488281 115.628906 C 164.078125 115.628906 164.097656 115.667969 163.972656 116.265625 Z M 168.003906 120.246094 C 169.097656 120.882812 169.179688 121.878906 168.171875 122.496094 C 167.691406 122.792969 167.417969 122.8125 165.800781 122.59375 C 164.789062 122.476562 163.929688 122.335938 163.886719 122.296875 C 163.78125 122.195312 164.246094 121.402344 164.832031 120.644531 C 165.714844 119.53125 166.597656 119.410156 168.003906 120.246094 Z M 168.003906 120.246094 "/>
<path style=" stroke:none;fill-rule:nonzero;fill:rgb(0%,0%,0%);fill-opacity:1;" d="M 163.046875 58.035156 C 162.394531 58.453125 162.460938 59.027344 163.152344 59.207031 C 163.78125 59.347656 164.265625 59.664062 164.265625 59.90625 C 164.265625 60.003906 163.636719 60.242188 162.859375 60.480469 C 162.058594 60.699219 160.882812 61.21875 160.234375 61.597656 C 159.222656 62.191406 159.015625 62.410156 159.015625 62.890625 C 159.015625 63.585938 159.308594 63.6875 160.632812 63.445312 C 161.492188 63.289062 161.914062 63.308594 162.710938 63.566406 C 164.203125 64.042969 165.484375 63.964844 167.5625 63.246094 C 170 62.410156 170.566406 61.894531 170.566406 60.460938 C 170.566406 59.882812 170.484375 59.289062 170.378906 59.128906 C 170.125 58.769531 165.882812 57.734375 164.582031 57.714844 C 163.949219 57.714844 163.320312 57.835938 163.046875 58.035156 Z M 163.046875 58.035156 "/>
<path style=" stroke:none;fill-rule:nonzero;fill:rgb(0%,0%,0%);fill-opacity:1;" d="M 154.394531 80.460938 C 154.394531 81.058594 155.714844 84.78125 156.15625 85.398438 C 156.324219 85.65625 157.542969 86.8125 158.824219 87.964844 L 161.179688 90.054688 L 161.050781 88.839844 C 160.820312 86.691406 160.234375 84.285156 159.855469 83.925781 C 159.601562 83.667969 159.140625 83.527344 158.46875 83.507812 C 156.660156 83.429688 155.714844 83.070312 155.464844 82.351562 C 155.339844 82.015625 155.234375 81.457031 155.234375 81.121094 C 155.234375 80.523438 154.917969 80.003906 154.5625 80.003906 C 154.476562 80.003906 154.394531 80.203125 154.394531 80.460938 Z M 154.394531 80.460938 "/>
<path style=" stroke:none;fill-rule:nonzero;fill:rgb(0%,0%,0%);fill-opacity:1;" d="M 164.246094 81 C 163.59375 81.320312 162.796875 81.875 162.480469 82.234375 L 161.890625 82.890625 L 162.4375 82.949219 C 163.488281 83.070312 165.734375 81.539062 165.734375 80.683594 C 165.734375 80.304688 165.609375 80.324219 164.246094 81 Z M 164.246094 81 "/>
<path style=" stroke:none;fill-rule:nonzero;fill:rgb(0%,0%,0%);fill-opacity:1;" d="M 145.488281 96.84375 L 144.898438 97.160156 L 145.445312 97.699219 C 146.199219 98.453125 146.136719 98.832031 145.148438 99.308594 C 144.015625 99.867188 143.53125 99.808594 142.796875 99.070312 L 142.1875 98.433594 L 140.78125 98.871094 C 140.003906 99.109375 139.058594 99.488281 138.679688 99.707031 L 137.988281 100.105469 L 138.429688 100.683594 C 138.660156 101 139.164062 101.5 139.519531 101.796875 C 140.089844 102.234375 140.339844 102.316406 141.011719 102.234375 C 141.472656 102.175781 141.976562 101.996094 142.148438 101.835938 C 142.417969 101.578125 142.355469 101.5 141.640625 101.082031 C 141.136719 100.78125 140.527344 100.601562 139.941406 100.601562 L 139.039062 100.601562 L 139.582031 100.164062 C 140.464844 99.429688 140.992188 99.410156 142.316406 100.085938 C 143.132812 100.503906 143.828125 100.703125 144.457031 100.703125 C 145.949219 100.703125 146.515625 100.40625 149.707031 97.996094 C 150.109375 97.699219 150.210938 97.480469 150.109375 97.160156 C 149.917969 96.601562 149.414062 96.601562 148.804688 97.140625 L 148.363281 97.539062 L 147.566406 97.039062 C 146.664062 96.445312 146.328125 96.425781 145.488281 96.84375 Z M 145.488281 96.84375 "/>
<path style=" stroke:none;fill-rule:nonzero;fill:rgb(0%,0%,0%);fill-opacity:1;" d="M 155.339844 100.941406 C 156.136719 103.289062 156.515625 104.78125 156.535156 105.738281 C 156.554688 106.890625 156.554688 106.890625 157.101562 106.773438 C 158.238281 106.496094 158.40625 106.054688 157.859375 104.824219 C 157.691406 104.425781 157.542969 103.945312 157.566406 103.746094 C 157.566406 103.410156 157.585938 103.410156 157.816406 103.769531 C 158.46875 104.742188 159.222656 105.398438 160.589844 106.214844 C 162.355469 107.289062 163.320312 108.125 163.636719 108.882812 C 163.910156 109.5 164.265625 109.480469 164.265625 108.84375 C 164.265625 107.96875 165.734375 108.703125 166.386719 109.898438 C 166.617188 110.335938 166.996094 111.25 167.226562 111.949219 C 167.691406 113.378906 168.78125 114.714844 169.117188 114.214844 C 169.371094 113.816406 169.347656 111.628906 169.054688 110.078125 C 168.824219 108.761719 168.824219 108.761719 168.550781 109.359375 C 168.402344 109.679688 168.257812 110.535156 168.234375 111.25 L 168.195312 112.542969 L 168.027344 111.113281 C 167.730469 108.78125 167.207031 108.125 164.707031 107.050781 C 162.605469 106.15625 160 104.40625 157.859375 102.472656 C 156.117188 100.882812 155.105469 100.265625 155.339844 100.941406 Z M 155.339844 100.941406 "/>
<path style=" stroke:none;fill-rule:nonzero;fill:rgb(0%,0%,0%);fill-opacity:1;" d="M 93.328125 155.570312 C 93.414062 170.121094 93.539062 188.925781 93.625 197.367188 L 93.75 212.75 L 110.554688 212.75 L 110.425781 191.59375 C 110.34375 179.972656 110.21875 161.164062 110.132812 149.800781 L 110.007812 129.164062 L 93.203125 129.164062 Z M 93.328125 155.570312 "/>
<path style=" stroke:none;fill-rule:nonzero;fill:rgb(0%,0%,0%);fill-opacity:1;" d="M 66.460938 145.523438 C 66.527344 151.035156 66.609375 162.65625 66.609375 171.355469 C 66.628906 186.835938 66.628906 187.214844 66.167969 189.265625 C 64.613281 196.410156 60.222656 200.570312 53.125 201.625 C 51.191406 201.902344 46.988281 201.746094 45.269531 201.328125 C 40.457031 200.113281 36.632812 196.648438 34.996094 192.03125 C 33.695312 188.371094 33.695312 187.992188 33.421875 139.453125 L 33.398438 135.730469 L 29.765625 135.730469 C 27.75 135.730469 23.695312 135.789062 20.734375 135.871094 L 15.355469 135.988281 L 15.460938 159.292969 C 15.585938 189.167969 15.671875 190.519531 17.351562 195.433594 C 20.835938 205.683594 29.597656 212.035156 42.769531 213.863281 C 46.234375 214.363281 53.398438 214.363281 56.714844 213.882812 C 68.792969 212.113281 76.921875 206.976562 81.566406 198.121094 C 83.015625 195.335938 83.730469 193.125 84.359375 189.5625 C 84.652344 187.832031 84.695312 185.542969 84.675781 171.851562 C 84.675781 163.195312 84.589844 151.492188 84.527344 145.820312 L 84.378906 135.53125 L 66.316406 135.53125 Z M 66.460938 145.523438 "/>
<path style=" stroke:none;fill-rule:nonzero;fill:rgb(0%,0%,0%);fill-opacity:1;" d="M 198.085938 153.640625 C 193.023438 153.921875 187.855469 154.855469 181.953125 156.546875 C 180.609375 156.945312 179.472656 157.285156 179.453125 157.304688 C 179.367188 157.382812 180.1875 167.792969 180.292969 167.890625 C 180.335938 167.929688 181.175781 167.574219 182.140625 167.09375 C 187.203125 164.566406 193.84375 163.214844 199.976562 163.453125 C 208.925781 163.792969 213.167969 167.574219 213.210938 175.234375 L 213.210938 176.828125 L 206.738281 176.828125 C 199.996094 176.847656 197.726562 177.027344 192.9375 177.941406 C 183.527344 179.734375 176.699219 184.332031 174.242188 190.539062 C 172.730469 194.359375 172.710938 200.09375 174.203125 203.8125 C 175.964844 208.253906 180.25 211.734375 185.691406 213.207031 C 188.949219 214.101562 194.597656 214.441406 197.582031 213.925781 C 203.378906 212.949219 209.007812 209.644531 212.433594 205.226562 L 213.398438 203.972656 L 213.503906 204.628906 C 213.566406 204.988281 213.671875 206.957031 213.753906 209.007812 L 213.882812 212.75 L 230.285156 212.75 L 230.140625 211.792969 C 229.804688 209.285156 229.613281 202.183594 229.488281 188.46875 C 229.363281 172.25 229.277344 170.957031 228.1875 167.691406 C 226.945312 163.96875 224.636719 160.746094 221.632812 158.578125 C 219.910156 157.34375 216.148438 155.59375 214.050781 155.035156 C 211.613281 154.398438 208.230469 153.878906 205.835938 153.742188 C 201.382812 153.523438 200.648438 153.503906 198.085938 153.640625 Z M 213.144531 188.707031 C 213.019531 192.988281 212.515625 195.234375 211.128906 197.765625 C 209.996094 199.8125 208.902344 200.96875 206.992188 202.183594 C 204.574219 203.714844 203.0625 204.09375 199.34375 204.09375 C 196.699219 204.09375 196.109375 204.011719 194.933594 203.636719 C 192.183594 202.699219 190.566406 201.285156 189.683594 199.058594 C 189.074219 197.523438 189.074219 194.839844 189.703125 192.949219 C 190.101562 191.714844 190.332031 191.394531 191.761719 190.042969 C 195.375 186.617188 200.605469 185.265625 210.773438 185.125 L 213.273438 185.085938 Z M 213.144531 188.707031 "/>
<path style=" stroke:none;fill-rule:nonzero;fill:rgb(0%,0%,0%);fill-opacity:1;" d="M 140.949219 153.839844 C 129.269531 155.375 120.71875 162.179688 116.898438 172.984375 C 115.679688 176.449219 115.257812 179.175781 115.257812 183.792969 C 115.257812 193.703125 117.96875 201.046875 123.621094 206.5 C 129.648438 212.3125 138.261719 214.761719 150.550781 214.144531 C 155.273438 213.902344 159.414062 213.464844 162.691406 212.828125 C 165.167969 212.351562 169.285156 211.257812 169.539062 211 C 169.601562 210.917969 169.496094 208.710938 169.285156 206.082031 C 169.074219 203.457031 168.90625 201.066406 168.90625 200.75 L 168.886719 200.210938 L 167.667969 200.789062 C 161.578125 203.695312 150.484375 205.109375 144.878906 203.675781 C 142.882812 203.175781 139.519531 201.585938 138.007812 200.429688 C 134.519531 197.804688 132.460938 194.023438 132 189.542969 L 131.875 188.132812 L 134.878906 188.011719 C 136.539062 187.933594 145.507812 187.871094 154.8125 187.871094 C 164.117188 187.871094 171.953125 187.8125 172.226562 187.734375 L 172.730469 187.613281 L 172.605469 183.316406 C 172.480469 178.777344 172.144531 176.171875 171.261719 172.746094 C 168.675781 162.578125 162.144531 156.25 152.125 154.238281 C 149.792969 153.761719 143.300781 153.542969 140.949219 153.839844 Z M 147.859375 163.492188 C 149.75 163.929688 151.136719 164.6875 152.710938 166.179688 C 154.140625 167.511719 155.464844 169.664062 156.15625 171.652344 C 156.554688 172.828125 157.039062 175.632812 157.230469 177.761719 L 157.375 179.316406 L 150.023438 179.316406 C 145.992188 179.316406 140.277344 179.375 137.316406 179.453125 L 131.917969 179.574219 L 131.917969 178.597656 C 131.917969 177.207031 132.460938 174.261719 132.988281 172.746094 C 135.382812 165.839844 141.453125 162.058594 147.859375 163.492188 Z M 147.859375 163.492188 "/>
<path style=" stroke:none;fill-rule:nonzero;fill:rgb(0%,0%,0%);fill-opacity:1;" d="M 306.054688 153.859375 C 299.542969 154.957031 293.914062 158.636719 291.160156 163.59375 L 290.386719 164.984375 L 289.292969 162.957031 C 287.042969 158.65625 282.949219 155.632812 277.800781 154.398438 C 276.207031 154.019531 275.34375 153.941406 272.234375 153.941406 C 268.179688 153.941406 266.667969 154.160156 263.625 155.214844 C 259.441406 156.667969 255.832031 159.632812 253.519531 163.492188 L 252.804688 164.6875 L 252.679688 162 C 252.59375 160.527344 252.53125 158.339844 252.511719 157.144531 L 252.492188 154.976562 L 244.59375 155.09375 C 240.242188 155.175781 236.652344 155.253906 236.628906 155.273438 C 236.609375 155.3125 236.671875 156.011719 236.757812 156.824219 C 237.113281 159.929688 237.34375 170.519531 237.367188 182.898438 C 237.367188 189.960938 237.429688 199.554688 237.511719 204.230469 L 237.640625 212.75 L 254.445312 212.75 L 254.296875 196.371094 C 254.128906 179.195312 254.191406 177.285156 255.03125 174.160156 C 256.1875 169.882812 258.9375 166.757812 262.425781 165.742188 C 264.503906 165.144531 268.054688 165.285156 269.714844 166.019531 C 271.457031 166.796875 272.53125 167.792969 273.390625 169.421875 C 274.925781 172.390625 274.777344 169.085938 275.15625 210.300781 L 275.175781 212.75 L 291.792969 212.75 L 291.769531 195.375 C 291.730469 177.425781 291.769531 176.527344 292.613281 173.582031 C 293.453125 170.699219 295.320312 168.03125 297.546875 166.578125 C 299.1875 165.503906 300.804688 165.144531 303.535156 165.222656 C 305.761719 165.285156 306.074219 165.34375 307.335938 165.921875 C 309.015625 166.71875 310.277344 167.949219 311.117188 169.644531 C 312.398438 172.230469 312.398438 172.070312 312.566406 192.449219 C 312.652344 202.679688 312.734375 211.4375 312.757812 211.894531 L 312.777344 212.75 L 329.582031 212.75 L 329.476562 193.605469 C 329.394531 183.054688 329.246094 173.324219 329.140625 171.953125 C 328.40625 163.433594 325.378906 158.4375 319.101562 155.433594 C 316.769531 154.316406 314.183594 153.820312 310.464844 153.742188 C 308.679688 153.703125 306.683594 153.742188 306.054688 153.859375 Z M 306.054688 153.859375 "/>
</g>
</svg>
